<?xml version="1.0" encoding="utf-8"?>
<!-- Generator: Adobe Illustrator 24.2.0, SVG Export Plug-In . SVG Version: 6.00 Build 0)  -->
<svg version="1.1" id="レイヤー_1" xmlns="http://www.w3.org/2000/svg" xmlns:xlink="http://www.w3.org/1999/xlink" x="0px"
	 y="0px" viewBox="0 0 25 25" style="enable-background:new 0 0 25 25;" xml:space="preserve">
<style type="text/css">
	.st0{fill:#F1BB34;}
	.st1{fill:#121212;}
	.st2{font-family:'ArialRoundedMTBold';}
	.st3{font-size:13.7737px;}
</style>
<g id="グループ_103">
	<circle id="楕円形_46" class="st0" cx="12.4" cy="15" r="8.9"/>
	<path id="パス_250" class="st1" d="M19.9,8l1.7-1.7c0.3-0.3,0.2-0.8-0.1-1.1c-0.3-0.2-0.7-0.2-1,0L18.8,7c-1.6-1.3-3.5-2-5.6-2.2
		l0,0V1.5h2.3c0.4,0,0.7-0.4,0.7-0.8c0-0.4-0.3-0.6-0.7-0.7h-6C9.1,0,8.7,0.3,8.7,0.7c0,0,0,0,0,0c0,0.4,0.3,0.8,0.8,0.8h2.3v3.3
		l0,0C6.2,5.2,2,10,2.4,15.6s5.3,9.7,10.8,9.3c5.6-0.4,9.7-5.3,9.3-10.8C22.4,11.8,21.5,9.7,19.9,8z M12.5,23.4
		c-4.7,0-8.6-3.8-8.6-8.6c0-4.7,3.8-8.6,8.6-8.6s8.6,3.8,8.6,8.6c0,0,0,0,0,0C21.1,19.6,17.3,23.4,12.5,23.4
		C12.5,23.5,12.5,23.5,12.5,23.4L12.5,23.4z"/>
</g>
<line style="fill:none;" x1="12.5" y1="29.6" x2="1.1" y2="29.6"/>
<text transform="matrix(1 0 0 1 8.3377 19.7012)" class="st2 st3">5</text>
</svg>
